<?xml version="1.0" encoding="UTF-8" standalone="no"?>
<svg
	xmlns="http://www.w3.org/2000/svg"
	xmlns:xlink="http://www.w3.org/1999/xlink" contentScriptType="application/ecmascript" contentStyleType="text/css" height="409px" preserveAspectRatio="none" style="width:643px;height:409px;" version="1.1" viewBox="0 0 643 409" width="643px" zoomAndPan="magnify">
	<defs>
		<filter height="300%" id="f16aldegojf5nx" width="300%" x="-1" y="-1">
			<feGaussianBlur result="blurOut" stdDeviation="2.0"/>
			<feColorMatrix in="blurOut" result="blurOut2" type="matrix" values="0 0 0 0 0 0 0 0 0 0 0 0 0 0 0 0 0 0 .4 0"/>
			<feOffset dx="4.0" dy="4.0" in="blurOut2" result="blurOut3"/>
			<feBlend in="SourceGraphic" in2="blurOut3" mode="normal"/>
		</filter>
	</defs>
	<g>
		<line style="stroke:#A80036;stroke-width:1.0;stroke-dasharray:5.0,5.0;" x1="64" x2="64" y1="88.2969" y2="325"/>
		<line style="stroke:#A80036;stroke-width:1.0;stroke-dasharray:5.0,5.0;" x1="286" x2="286" y1="88.2969" y2="325"/>
		<line style="stroke:#A80036;stroke-width:1.0;stroke-dasharray:5.0,5.0;" x1="463" x2="463" y1="88.2969" y2="325"/>
		<line style="stroke:#A80036;stroke-width:1.0;stroke-dasharray:5.0,5.0;" x1="583" x2="583" y1="88.2969" y2="325"/>
		<text fill="#000000" font-family="sans-serif" font-size="14" lengthAdjust="spacingAndGlyphs" textLength="112" x="5" y="84.9951">リソースオーナー</text>
		<ellipse cx="64" cy="15" fill="#FEFECE" filter="url(#f16aldegojf5nx)" rx="8" ry="8" style="stroke:#A80036;stroke-width:2.0;"/>
		<path d="M64,23 L64,50 M51,31 L77,31 M64,50 L51,65 M64,50 L77,65 " fill="none" filter="url(#f16aldegojf5nx)" style="stroke:#A80036;stroke-width:2.0;"/>
		<text fill="#000000" font-family="sans-serif" font-size="14" lengthAdjust="spacingAndGlyphs" textLength="112" x="5" y="336.9951">リソースオーナー</text>
		<ellipse cx="64" cy="350.2969" fill="#FEFECE" filter="url(#f16aldegojf5nx)" rx="8" ry="8" style="stroke:#A80036;stroke-width:2.0;"/>
		<path d="M64,358.2969 L64,385.2969 M51,366.2969 L77,366.2969 M64,385.2969 L51,400.2969 M64,385.2969 L77,400.2969 " fill="none" filter="url(#f16aldegojf5nx)" style="stroke:#A80036;stroke-width:2.0;"/>
		<rect fill="#FEFECE" filter="url(#f16aldegojf5nx)" height="30.2969" style="stroke:#A80036;stroke-width:1.5;" width="98" x="235" y="53"/>
		<text fill="#000000" font-family="sans-serif" font-size="14" lengthAdjust="spacingAndGlyphs" textLength="84" x="242" y="72.9951">クライアント</text>
		<rect fill="#FEFECE" filter="url(#f16aldegojf5nx)" height="30.2969" style="stroke:#A80036;stroke-width:1.5;" width="98" x="235" y="324"/>
		<text fill="#000000" font-family="sans-serif" font-size="14" lengthAdjust="spacingAndGlyphs" textLength="84" x="242" y="343.9951">クライアント</text>
		<rect fill="#FEFECE" filter="url(#f16aldegojf5nx)" height="30.2969" style="stroke:#A80036;stroke-width:1.5;" width="98" x="412" y="53"/>
		<text fill="#000000" font-family="sans-serif" font-size="14" lengthAdjust="spacingAndGlyphs" textLength="84" x="419" y="72.9951">認可サーバー</text>
		<rect fill="#FEFECE" filter="url(#f16aldegojf5nx)" height="30.2969" style="stroke:#A80036;stroke-width:1.5;" width="98" x="412" y="324"/>
		<text fill="#000000" font-family="sans-serif" font-size="14" lengthAdjust="spacingAndGlyphs" textLength="84" x="419" y="343.9951">認可サーバー</text>
		<text fill="#000000" font-family="sans-serif" font-size="14" lengthAdjust="spacingAndGlyphs" textLength="112" x="524" y="84.9951">リソースサーバー</text>
		<path d="M565,36 C565,26 583,26 583,26 C583,26 601,26 601,36 L601,62 C601,72 583,72 583,72 C583,72 565,72 565,62 L565,36 " fill="#FEFECE" filter="url(#f16aldegojf5nx)" style="stroke:#000000;stroke-width:1.5;"/>
		<path d="M565,36 C565,46 583,46 583,46 C583,46 601,46 601,36 " fill="none" style="stroke:#000000;stroke-width:1.5;"/>
		<text fill="#000000" font-family="sans-serif" font-size="14" lengthAdjust="spacingAndGlyphs" textLength="112" x="524" y="336.9951">リソースサーバー</text>
		<path d="M565,350.2969 C565,340.2969 583,340.2969 583,340.2969 C583,340.2969 601,340.2969 601,350.2969 L601,376.2969 C601,386.2969 583,386.2969 583,386.2969 C583,386.2969 565,386.2969 565,376.2969 L565,350.2969 " fill="#FEFECE" filter="url(#f16aldegojf5nx)" style="stroke:#000000;stroke-width:1.5;"/>
		<path d="M565,350.2969 C565,360.2969 583,360.2969 583,360.2969 C583,360.2969 601,360.2969 601,350.2969 " fill="none" style="stroke:#000000;stroke-width:1.5;"/>
		<polygon fill="#A80036" points="75,115.4297,65,119.4297,75,123.4297,71,119.4297" style="stroke:#A80036;stroke-width:1.0;"/>
		<line style="stroke:#A80036;stroke-width:1.0;" x1="69" x2="285" y1="119.4297" y2="119.4297"/>
		<text fill="#000000" font-family="sans-serif" font-size="13" lengthAdjust="spacingAndGlyphs" textLength="94" x="81" y="114.3638">　1. 認可の要求</text>
		<polygon fill="#A80036" points="274,156.2031,284,160.2031,274,164.2031,278,160.2031" style="stroke:#A80036;stroke-width:1.0;"/>
		<line style="stroke:#A80036;stroke-width:1.0;" x1="64" x2="280" y1="160.2031" y2="160.2031"/>
		<text fill="#000000" font-family="sans-serif" font-size="13" lengthAdjust="spacingAndGlyphs" textLength="146" x="71" y="143.4966">　2. 認可グラントの発行</text>
		<text fill="#000000" font-family="sans-serif" font-size="10" lengthAdjust="spacingAndGlyphs" textLength="198" x="71" y="155.8447">(認可されたことを示す証明書のようなもの)</text>
		<polygon fill="#A80036" points="451,200.4688,461,204.4688,451,208.4688,455,204.4688" style="stroke:#A80036;stroke-width:1.0;"/>
		<line style="stroke:#A80036;stroke-width:1.0;" x1="286" x2="457" y1="204.4688" y2="204.4688"/>
		<text fill="#000000" font-family="sans-serif" font-size="13" lengthAdjust="spacingAndGlyphs" textLength="130" x="293" y="184.27">　認可グラントの送付</text>
		<text fill="#000000" font-family="sans-serif" font-size="13" lengthAdjust="spacingAndGlyphs" textLength="153" x="293" y="199.4028">(アクセストークンの要求)</text>
		<polygon fill="#A80036" points="297,229.6016,287,233.6016,297,237.6016,293,233.6016" style="stroke:#A80036;stroke-width:1.0;"/>
		<line style="stroke:#A80036;stroke-width:1.0;" x1="291" x2="462" y1="233.6016" y2="233.6016"/>
		<text fill="#000000" font-family="sans-serif" font-size="13" lengthAdjust="spacingAndGlyphs" textLength="143" x="303" y="228.5356">アクセストークンの送付</text>
		<polygon fill="#A80036" points="571,273.8672,581,277.8672,571,281.8672,575,277.8672" style="stroke:#A80036;stroke-width:1.0;"/>
		<line style="stroke:#A80036;stroke-width:1.0;" x1="286" x2="577" y1="277.8672" y2="277.8672"/>
		<text fill="#000000" font-family="sans-serif" font-size="13" lengthAdjust="spacingAndGlyphs" textLength="143" x="293" y="257.6685">アクセストークンの送付</text>
		<text fill="#000000" font-family="sans-serif" font-size="13" lengthAdjust="spacingAndGlyphs" textLength="101" x="293" y="272.8013">(リソースの要求)</text>
		<polygon fill="#A80036" points="297,303,287,307,297,311,293,307" style="stroke:#A80036;stroke-width:1.0;"/>
		<line style="stroke:#A80036;stroke-width:1.0;" x1="291" x2="582" y1="307" y2="307"/>
		<text fill="#000000" font-family="sans-serif" font-size="13" lengthAdjust="spacingAndGlyphs" textLength="91" x="303" y="301.9341">リソースの送付</text>
		<!--MD5=[13aa90f2f04c2d5cce09f0c20403e28b]
@startuml
actor リソースオーナー

リソースオーナー <- クライアント: 1. 認可の要求
リソースオーナー -> クライアント: 2. 認可グラントの発行\n<size:10>(認可されたことを示す証明書のようなもの)</size>

クライアント -> 認可サーバー: 認可グラントの送付\n(アクセストークンの要求)
認可サーバー -> クライアント: アクセストークンの送付

database リソースサーバー

クライアント -> リソースサーバー: アクセストークンの送付\n(リソースの要求)
リソースサーバー -> クライアント: リソースの送付
@enduml

PlantUML version 1.2020.22(Sun Dec 06 09:36:27 UTC 2020)
(GPL source distribution)
Java Runtime: OpenJDK Runtime Environment
JVM: OpenJDK 64-Bit Server VM
Default Encoding: UTF-8
Language: en
Country: US
-->
	</g>
</svg>
